<?xml version="1.0" encoding="iso-8859-1"?>
<!-- Generator: Adobe Illustrator 19.0.0, SVG Export Plug-In . SVG Version: 6.00 Build 0)  -->
<svg version="1.1" id="Capa_1" xmlns="http://www.w3.org/2000/svg" xmlns:xlink="http://www.w3.org/1999/xlink" x="0px" y="0px"
	 viewBox="0 0 512 512" style="enable-background:new 0 0 512 512;" xml:space="preserve">
<path style="fill:#FFFFFF;" d="M428,504H84c-41.6,0-76-34.4-76-76l0,0h496l0,0C504,469.6,469.6,504,428,504z"/>
<rect x="34.4" y="95.2" style="fill:#F16051;" width="442.4" height="332.8"/>
<g>
	<rect x="66.4" y="127.2" style="fill:#FFFFFF;" width="378.4" height="268.8"/>
	<path style="fill:#FFFFFF;" d="M173.6,213.6c-36.8,0-66.4-29.6-66.4-66.4c0-28.8,18.4-54.4,45.6-63.2l9.6-3.2l1.6-9.6
		C168.8,34.4,200,8,236.8,8c24,0,47.2,12,60.8,32l6.4,9.6l10.4-2.4c3.2-0.8,6.4-0.8,8.8-0.8c18.4,0,33.6,12.8,36.8,31.2l1.6,8l7.2,4
		c22.4,11.2,36,34.4,36,59.2c0,36.8-29.6,66.4-66.4,66.4H173.6V213.6z"/>
	<polyline style="fill:#FFFFFF;" points="209.6,189.6 209.6,256.8 172,256.8 256,352.8 340,256.8 302.4,256.8 302.4,189.6 	"/>
</g>
<g>
	<rect x="200.8" y="457.6" style="fill:#193651;" width="16" height="16"/>
	<rect x="248" y="457.6" style="fill:#193651;" width="16" height="16"/>
	<rect x="295.2" y="457.6" style="fill:#193651;" width="16" height="16"/>
	<path style="fill:#193651;" d="M485.6,420V87.2H383.2c-3.2-2.4-6.4-4.8-10.4-6.4l-3.2-1.6l-0.8-4c-4-25.6-28.8-43.2-55.2-36L308,40
		l-3.2-4.8C289.6,13.6,264,0,236.8,0c-40.8,0-75.2,29.6-81.6,69.6l-0.8,4.8l-4.8,1.6c-8,2.4-15.2,6.4-21.6,11.2H26.4V420H0v8
		c0,46.4,37.6,84,84,84h344c46.4,0,84-37.6,84-84v-8H485.6z M155.2,91.2l13.6-4.8l2.4-14.4c4.8-32.8,32.8-56,65.6-56
		c21.6,0,42.4,10.4,54.4,28.8l9.6,13.6l16-4c2.4-0.8,4.8-0.8,7.2-0.8c14.4,0,26.4,10.4,28.8,24l1.6,12l10.4,5.6
		c19.2,10.4,32,30.4,32,52c0,32-26.4,58.4-58.4,58.4h-28.8v-16h-16v76h28.8L256,340l-66.4-75.2h28.8v-76h-16v16h-28.8
		c-32,0-58.4-26.4-58.4-58.4C115.2,121.6,131.2,99.2,155.2,91.2z M42.4,103.2h70.4c-8.8,12-13.6,27.2-13.6,43.2
		c0,40.8,33.6,74.4,74.4,74.4h28.8v28h-48l101.6,116l102.4-115.2h-48v-28h28.8c40.8,0,74.4-33.6,74.4-74.4c0-16-4.8-31.2-14.4-43.2
		h70.4v316.8H42.4V103.2z M428,496H84c-35.2,0-64-26.4-68-60h479.2C491.2,469.6,462.4,496,428,496z"/>
	<rect x="293.6" y="157.6" style="fill:#193651;" width="16" height="16"/>
	<rect x="201.6" y="157.6" style="fill:#193651;" width="16" height="16"/>
	<rect x="293.6" y="125.6" style="fill:#193651;" width="16" height="16"/>
	<rect x="201.6" y="125.6" style="fill:#193651;" width="16" height="16"/>
	<rect x="293.6" y="93.6" style="fill:#193651;" width="16" height="16"/>
	<rect x="201.6" y="93.6" style="fill:#193651;" width="16" height="16"/>
</g>
<g>
</g>
<g>
</g>
<g>
</g>
<g>
</g>
<g>
</g>
<g>
</g>
<g>
</g>
<g>
</g>
<g>
</g>
<g>
</g>
<g>
</g>
<g>
</g>
<g>
</g>
<g>
</g>
<g>
</g>
</svg>
