<?xml version="1.0" encoding="iso-8859-1"?>
<!-- Generator: Adobe Illustrator 19.0.0, SVG Export Plug-In . SVG Version: 6.00 Build 0)  -->
<svg version="1.1" id="Capa_1" xmlns="http://www.w3.org/2000/svg" xmlns:xlink="http://www.w3.org/1999/xlink" x="0px" y="0px"
	 viewBox="0 0 513.6 513.6" style="enable-background:new 0 0 513.6 513.6;" xml:space="preserve">
<path style="fill:#FFFFFF;" d="M340.4,235.2c0-0.8,0-1.6,0-2.4c0-31.2-25.6-56.8-56.8-56.8c-21.6,0-40,12-49.6,28.8
	c-7.2-5.6-16-9.6-26.4-9.6c-22.4,0-40.8,18.4-40.8,40.8v0.8c-19.2,7.2-32.8,26.4-32.8,48c0,28.8,23.2,52,52,52h139.2
	c28.8,0,52-23.2,52-52C378,261.6,362,241.6,340.4,235.2z"/>
<g>
	<circle style="fill:#D3D7DA;" cx="464.4" cy="48.8" r="40"/>
	<circle style="fill:#D3D7DA;" cx="464.4" cy="464.8" r="40"/>
	<circle style="fill:#D3D7DA;" cx="48.4" cy="48.8" r="40"/>
	<circle style="fill:#D3D7DA;" cx="48.4" cy="464.8" r="40"/>
</g>
<g>
	<circle style="fill:#FDBF5E;" cx="464.4" cy="256.8" r="40"/>
	<circle style="fill:#FDBF5E;" cx="256.4" cy="464.8" r="40"/>
	<circle style="fill:#FDBF5E;" cx="256.4" cy="48.8" r="40"/>
	<circle style="fill:#FDBF5E;" cx="48.4" cy="256.8" r="40"/>
</g>
<g>
	<path style="fill:#193651;" d="M430.8,290.4c8.8,8.8,20.8,14.4,33.6,14.4c12.8,0,24.8-4.8,33.6-14.4c8.8-8.8,14.4-20.8,14.4-33.6
		c0-12.8-4.8-24.8-14.4-33.6c-8.8-9.6-20.8-14.4-33.6-14.4s-24.8,4.8-33.6,14.4c-7.2,7.2-12,16-13.6,25.6h-44
		c-6.4-8-15.2-15.2-24.8-19.2c-0.8-14.4-6.4-28-15.2-38.4l104-104c8,5.6,17.6,8.8,28,8.8c26.4,0,48-21.6,48-48s-21.6-48-48-48
		s-48,21.6-48,48c0,10.4,3.2,20,8.8,28L322,180c-10.4-7.2-23.2-12-37.6-12c-6.4,0-12.8,0.8-19.2,3.2V96c9.6-1.6,18.4-6.4,25.6-13.6
		c8.8-8.8,13.6-20.8,13.6-33.6S299.6,24,290,15.2c-8.8-9.6-20.8-14.4-33.6-14.4s-24.8,4.8-33.6,14.4c-9.6,8.8-14.4,20.8-14.4,33.6
		s4.8,24.8,14.4,33.6c7.2,7.2,16,12,25.6,13.6v83.2c-6.4,4-12,9.6-16.8,15.2c-7.2-4-15.2-6.4-24-6.4c-3.2,0-5.6,0-8,0.8l-112-112
		c5.6-8,8.8-17.6,8.8-28c0-26.4-21.6-48-48-48s-48,21.6-48,48s21.6,48,48,48c10.4,0,20-3.2,28-8.8l107.2,107.2
		c-12.8,8-21.6,20.8-23.2,36.8c-8,4-15.2,9.6-20.8,16.8h-44c-1.6-9.6-6.4-18.4-13.6-25.6c-8.8-9.6-20.8-14.4-33.6-14.4
		s-24.8,4.8-33.6,14.4C5.2,232,0.4,244,0.4,256.8c0,12.8,4.8,24.8,14.4,33.6c8.8,9.6,20.8,14.4,33.6,14.4S73.2,300,82,290.4
		c7.2-7.2,12-16,13.6-25.6h35.2c-2.4,6.4-4,13.6-4,20.8c0,24,14.4,44.8,35.2,54.4l-85.6,85.6c-8-5.6-17.6-8.8-28-8.8
		c-26.4,0-48,21.6-48,48c0,26.4,21.6,48,48,48s48-21.6,48-48c0-10.4-3.2-20-8.8-28l92-92c2.4,0,4.8,0,6.4,0h62.4v72.8
		c-9.6,1.6-18.4,6.4-25.6,13.6c-9.6,8.8-14.4,20.8-14.4,33.6c0,12.8,4.8,24.8,14.4,33.6c8.8,8.8,20.8,14.4,33.6,14.4
		s24.8-4.8,33.6-14.4c8.8-8.8,14.4-20.8,14.4-33.6c0-12.8-4.8-24.8-14.4-33.6c-7.2-7.2-16-12-25.6-13.6v-72.8H326c2.4,0,4.8,0,6.4,0
		l92.8,92.8c-5.6,8-8.8,17.6-8.8,28c0,26.4,21.6,48,48,48s48-21.6,48-48c0-26.4-21.6-48-48-48c-10.4,0-20,3.2-28,8.8L350.8,340
		c20.8-9.6,35.2-30.4,35.2-54.4c0-7.2-1.6-13.6-4-20.8h35.2C418.8,274.4,423.6,283.2,430.8,290.4z M442,234.4
		c6.4-6.4,14.4-9.6,22.4-9.6c8.8,0,16.8,3.2,22.4,9.6c6.4,6.4,9.6,14.4,9.6,22.4c0,8.8-3.2,16.8-9.6,22.4c-12,12-32.8,12-45.6,0
		c-5.6-5.6-8.8-13.6-8.8-22.4C432.4,248,435.6,240,442,234.4z M464.4,16.8c17.6,0,32,14.4,32,32s-14.4,32-32,32s-32-14.4-32-32
		S446.8,16.8,464.4,16.8z M48.4,80.8c-17.6,0-32-14.4-32-32s14.4-32,32-32s32,14.4,32,32S66,80.8,48.4,80.8z M70.8,279.2
		c-12,12-32.8,12-45.6,0c-5.6-5.6-8.8-13.6-8.8-22.4c0-8.8,3.2-16.8,9.6-22.4c5.6-6.4,13.6-9.6,22.4-9.6s16.8,3.2,22.4,9.6
		c6.4,5.6,9.6,13.6,9.6,22.4C80.4,265.6,77.2,273.6,70.8,279.2z M48.4,496.8c-17.6,0-32-14.4-32-32c0-17.6,14.4-32,32-32
		s32,14.4,32,32C80.4,482.4,66,496.8,48.4,496.8z M464.4,432.8c17.6,0,32,14.4,32,32c0,17.6-14.4,32-32,32s-32-14.4-32-32
		C432.4,447.2,446.8,432.8,464.4,432.8z M322.8,180.8v0.8c-0.8,0-0.8-0.8-1.6-0.8H322.8z M234,71.2c-6.4-5.6-9.6-13.6-9.6-22.4
		s3.2-16.8,9.6-22.4c5.6-6.4,13.6-9.6,22.4-9.6s16.8,3.2,22.4,9.6c6.4,5.6,9.6,13.6,9.6,22.4s-3.2,16.8-9.6,22.4
		C266.8,83.2,246,83.2,234,71.2z M278.8,442.4c6.4,6.4,9.6,14.4,9.6,22.4c0,8.8-3.2,16.8-9.6,22.4c-12,12-32.8,12-45.6,0
		c-5.6-5.6-8.8-13.6-8.8-22.4s3.2-16.8,9.6-22.4c6.4-6.4,14.4-9.6,22.4-9.6C265.2,432.8,273.2,436,278.8,442.4z M326,328.8H186.8
		c-24,0-44-20-44-44c0-18.4,11.2-33.6,28-40.8l4.8-2.4V236c0-17.6,14.4-32.8,32.8-32.8c8,0,15.2,2.4,20.8,8l7.2,6.4l4.8-8.8
		C250,193.6,266,184,283.6,184c27.2,0,48.8,21.6,48.8,48.8v8l6.4,1.6c18.4,5.6,32,22.4,32,42.4C370,309.6,350,328.8,326,328.8z"/>
	<rect x="248.4" y="264.8" style="fill:#193651;" width="16" height="16"/>
	<rect x="201.2" y="264.8" style="fill:#193651;" width="16" height="16"/>
	<rect x="295.6" y="264.8" style="fill:#193651;" width="16" height="16"/>
</g>
<g>
</g>
<g>
</g>
<g>
</g>
<g>
</g>
<g>
</g>
<g>
</g>
<g>
</g>
<g>
</g>
<g>
</g>
<g>
</g>
<g>
</g>
<g>
</g>
<g>
</g>
<g>
</g>
<g>
</g>
</svg>
